nColumns=19
nRows=23
DataType=double
version=3
OpenSimVersion=4.1
endheader
time	ground_force_tibia_r_vx	ground_force_tibia_r_vy	ground_force_tibia_r_vz	ground_force_tibia_r_px	ground_force_tibia_r_py	ground_force_tibia_r_pz	ground_force_tibia_r_mx	ground_force_tibia_r_my	ground_force_tibia_r_mz	ground_force_tibia_l_vx	ground_force_tibia_l_vy	ground_force_tibia_l_vz	ground_force_tibia_l_px	ground_force_tibia_l_py	ground_force_tibia_l_pz	ground_force_tibia_l_mx	ground_force_tibia_l_my	ground_force_tibia_l_mz
0	11.8779	377.862	-7.78444	0.312291	4.44089e-17	1.33725	-0.130193	-4.14172	0.0853247	-11.4349	267.603	10.7034	0.387558	4.44089e-17	1.08275	0.00240395	-0.0562578	-0.00225017
0.005	12.3372	376.947	-7.78758	0.311832	4.44089e-17	1.33679	-0.141613	-4.3268	0.08939	-10.9773	267.604	10.3981	0.38811	4.44089e-17	1.08277	0.0105585	-0.257395	-0.0100014
0.01	12.032	376.947	-7.78767	0.313288	4.44089e-17	1.33729	-0.136051	-4.26229	0.0880584	-10.5194	267.604	10.7031	0.387059	4.44089e-17	1.08308	0.000537939	-0.0136847	-0.000547333
0.015	12.3377	376.642	-7.78865	0.312294	4.44089e-17	1.33691	-0.137421	-4.19515	0.0867523	-9.75908	269.742	10.2501	0.384123	4.44089e-17	1.0824	0.0147019	-0.406363	-0.0154417
0.02	12.0329	376.336	-7.78983	0.312016	4.44089e-17	1.33678	-0.133504	-4.17541	0.0864272	-10.5199	267.91	10.5513	0.38378	4.44089e-17	1.08323	0.0028767	-0.0732606	-0.00288528
0.025	12.4897	376.949	-8.09259	0.311828	4.44089e-17	1.33679	-0.141335	-4.2656	0.0915768	-9.75821	268.827	10.0954	0.385743	4.44089e-17	1.08331	0.00742509	-0.204552	-0.00768169
0.03	12.4895	376.948	-7.78736	0.312203	4.44089e-17	1.33704	-0.140424	-4.23818	0.0875564	-8.84276	268.828	10.0952	0.384747	4.44089e-17	1.08297	0.00795589	-0.241866	-0.00908268
0.035	13.0987	377.559	-7.78487	0.31203	4.44089e-17	1.33706	-0.14807	-4.26801	0.0880019	-8.99515	268.523	9.94196	0.386001	4.44089e-17	1.08422	0.0142881	-0.42653	-0.0157921
0.04	13.0977	378.172	-8.39294	0.311836	4.44089e-17	1.33734	-0.145498	-4.20099	0.0932345	-9.60652	269.438	10.2496	0.385337	4.44089e-17	1.08258	0.0100758	-0.282599	-0.0107502
0.045	12.9448	378.17	-7.93515	0.311485	4.44089e-17	1.33711	-0.142737	-4.16992	0.0874975	-9.30083	268.828	10.0955	0.385765	4.44089e-17	1.08264	0.0100866	-0.291538	-0.0109483
0.05	13.4031	377.868	-8.39376	0.311563	4.44089e-17	1.33645	-0.151468	-4.27028	0.0948579	-9.9121	269.439	9.79202	0.383269	4.44089e-17	1.08255	0.00466483	-0.126803	-0.00460832
0.055	13.8594	378.477	-7.78094	0.312868	4.44089e-17	1.33723	-0.1518	-4.14542	0.0852239	-9.60559	268.218	10.0943	0.386152	4.44089e-17	1.08404	0.00299557	-0.0836455	-0.00314797
0.06	13.4001	379.394	-8.38803	0.311464	4.44089e-17	1.3381	-0.158885	-4.49847	0.0994569	-8.99579	268.524	9.94228	0.388016	4.44089e-17	1.08351	0.00696725	-0.207972	-0.0077003
0.065	13.8596	378.174	-8.23958	0.311842	4.44089e-17	1.33681	-0.160788	-4.38728	0.0955892	-9.9117	268.525	9.33233	0.386474	4.44089e-17	1.08317	0.0115973	-0.314191	-0.0109194
0.07	13.7057	378.784	-8.2373	0.310929	4.44089e-17	1.33709	-0.16202	-4.47774	0.0973759	-9.75872	267.915	9.02576	0.386943	4.44089e-17	1.08498	0.0237379	-0.6517	-0.021955
0.075	14.1627	379.091	-8.38848	0.31085	4.44089e-17	1.33747	-0.16256	-4.3512	0.096283	-9.9115	267.915	9.02591	0.388438	4.44089e-17	1.08425	0.012733	-0.344182	-0.0115953
0.08	14.0109	378.48	-8.3906	0.312109	4.44089e-17	1.33694	-0.164768	-4.45092	0.0986733	-10.217	267.916	8.72095	0.388925	4.44089e-17	1.08491	0.0076088	-0.199522	-0.00649467
0.085	13.8574	378.785	-8.2368	0.310933	4.44089e-17	1.33733	-0.16297	-4.4547	0.0968689	-11.2859	268.221	8.1118	0.388684	4.44089e-17	1.08504	0.00811328	-0.192821	-0.00583147
0.09	14.3143	379.091	-8.23537	0.310852	4.44089e-17	1.33722	-0.167705	-4.44139	0.0964846	-10.6751	267.612	8.11026	0.389675	4.44089e-17	1.08549	0.0197837	-0.495953	-0.0150304
0.095	14.1607	379.394	-7.62379	0.310427	4.44089e-17	1.33667	-0.158662	-4.25089	0.0854201	-11.4394	268.527	7.96022	0.390043	4.44089e-17	1.08592	0.0249847	-0.586491	-0.0173859
0.1	14.1607	379.088	-7.31953	0.310889	4.44089e-17	1.33653	-0.157607	-4.21922	0.0814658	-11.7459	269.443	7.81003	0.391425	4.44089e-17	1.08496	0.0244828	-0.561619	-0.016279
0.105	14.1598	379.394	-7.47082	0.311153	4.44089e-17	1.33666	-0.160824	-4.30908	0.0848519	-11.8981	268.833	7.65619	0.391862	4.44089e-17	1.08503	0.027805	-0.628243	-0.017892
0.11	14.1589	379.7	-7.46951	0.310699	4.44089e-17	1.33632	-0.162903	-4.36859	0.0859395	-12.9657	268.221	7.96045	0.39428	4.44089e-17	1.08538	0.0105882	-0.219037	-0.00650074
